<svg xmlns="http://www.w3.org/2000/svg" version="1.1" xmlns:xlink="http://www.w3.org/1999/xlink" width="512" height="512" x="0" y="0" viewBox="0 0 512 512" style="enable-background:new 0 0 512 512" xml:space="preserve" class=""><g><g fill="#2a343b"><path d="M508.553 11.175c-2.997-2.965-7.207-4.056-11.265-2.91-11.457 3.229-28.941 6.738-47.19 5.133-6.233-.55-11.868-1.297-17.318-2.02-22.103-2.934-39.561-5.248-70.507 8.832-14.759 6.714-28.906 21.175-43.883 36.486-13.648 13.951-27.725 28.321-43.884 38.996v-6.53c15.444-7.052 26.21-22.632 26.21-40.689 0-24.656-20.059-44.715-44.714-44.715s-44.715 20.059-44.715 44.715c0 18.057 10.765 33.637 26.21 40.689v6.529c-16.16-10.675-30.237-25.045-43.885-38.996-14.977-15.311-29.123-29.772-43.882-36.486-30.949-14.078-48.408-11.763-70.51-8.831-5.45.723-11.086 1.47-17.318 2.02-18.247 1.604-35.733-1.903-47.19-5.133-4.058-1.145-8.269-.055-11.265 2.91C.444 14.147-.69 18.355.413 22.435l2.204 8.146c.282 1.159 3.246 12.655 12.433 23.93 4.382 5.379 10.637 11.206 19.262 15.547l-2.017.084a11.17 11.17 0 0 0-9.136 5.428 11.094 11.094 0 0 0-.495 10.543c5.929 12.333 19.781 31.832 48.892 35.145a13.187 13.187 0 0 0-3.515 4.412c-1.881 3.798-1.849 8.143.086 11.92 6.619 12.917 22.686 34.049 56.926 34.047 1.25 0 2.529-.028 3.827-.086l.45-.021c-5.631 22.739-11.55 48.339 3.567 72.279 7.005 10.551 19.493 17.498 33.791 22.496a133.68 133.68 0 0 0-5.289 2.883c-20.986 11.179-34.674 29.751-37.563 50.965-2.774 20.372 5.008 40.975 21.353 56.556 13.642 15.389 39.26 27.585 65.923 38.247-33.236 22.347-31.372 41.034-29.891 46.477 1.829 6.721 7.153 11.281 13.247 11.345l.117.001c4.964-.001 11.196-3.302 13.928-12.568 2.066-6.861 13.863-13.782 28.98-20.488v50.014c0 10.204 8.301 18.505 18.505 18.505 10.203 0 18.505-8.301 18.505-18.505v-49.994c15.351 6.815 26.934 13.672 28.974 20.445 2.744 9.306 8.906 12.591 13.951 12.59.174 0 .347-.004.518-.012 6.408-.288 11.686-5.363 13.133-12.629 1.165-5.844 1.458-23.911-30.177-45.182 26.582-10.608 52.094-22.663 65.905-38.245 16.345-15.582 24.127-36.186 21.353-56.557-2.889-21.213-16.578-39.787-37.564-50.966a129.49 129.49 0 0 0-5.25-2.869c16.618-5.799 27.484-13.069 33.803-22.587 15.069-23.864 9.149-49.463 3.517-72.202.153.007.297.015.451.021 1.301.058 2.575.086 3.827.086 34.236-.001 50.307-21.131 56.926-34.047 1.936-3.777 1.968-8.122.087-11.92a13.197 13.197 0 0 0-3.515-4.412c29.106-3.315 42.964-22.813 48.892-35.146a11.092 11.092 0 0 0-.495-10.542 11.17 11.17 0 0 0-9.135-5.428l-2.03-.085c8.631-4.34 14.89-10.166 19.274-15.547 9.187-11.275 12.151-22.771 12.433-23.93l2.204-8.146c1.105-4.077-.029-8.286-3.032-11.258zM219.315 48.473c0-20.229 16.457-36.686 36.685-36.686s36.685 16.457 36.685 36.686S276.229 85.158 256 85.158s-36.685-16.457-36.685-36.685zm55.19 117.172c8.479-1.735 19.535-3.458 27.361-2.714 8.244.787 15.389 1.791 22.827 2.859 1.12 2.485 2.408 4.755 3.866 6.682 6.475 8.557 10.539 10.416 13.227 11.647 1.465.67 1.522.697 1.995 1.678 5.51 11.43 2.231 26.724-4.267 32.254-7.539 6.417-33.666 11.434-61.327 16.747l-3.682.708zM256 239.137c-3.532-.714-7.028-1.404-10.476-2.077V91.936c3.363.811 6.868 1.251 10.476 1.251s7.113-.441 10.476-1.251V237.06c-3.452.673-6.948 1.364-10.476 2.077zM128.524 163.53c-30.776 1.371-45.943-15.341-53.251-29.601a5.17 5.17 0 0 1-.037-4.695 5.125 5.125 0 0 1 3.723-2.794l43.719-7.846c.127-.023.253-.052.377-.087l26.374-7.413a4.014 4.014 0 0 0 2.844-4.684 4.005 4.005 0 0 0-4.479-3.157c-5.993.827-11.892 2.177-18.137 3.606-12.045 2.757-25.698 5.882-45.81 6.776a76.14 76.14 0 0 1-3.412.077c-30.866-.002-44.868-19.291-50.534-31.077-.649-1.351-.117-2.501.143-2.933.265-.441 1.047-1.474 2.586-1.539l35.461-1.485.035-.001c11.159-.497 20.078-2.574 27.947-4.408 4.422-1.03 8.6-2.002 12.421-2.479a4.015 4.015 0 0 0-.994-7.968c-4.239.529-8.615 1.548-13.249 2.627-7.531 1.754-16.066 3.742-26.482 4.206-46.794 2.066-56.945-38.273-57.353-39.983l-.034-.134-2.218-8.203c-.488-1.804.488-3.018.93-3.455.44-.437 1.654-1.392 3.44-.89 12.103 3.412 30.616 7.122 50.072 5.403 6.409-.564 12.133-1.324 17.669-2.058 21.641-2.872 37.279-4.945 66.128 8.18 13.393 6.094 27.03 20.034 41.467 34.792 14.452 14.774 30.807 31.476 49.624 42.886v52.263c-8.694-1.707-19.802-3.315-28.124-2.52-6.903.659-13.008 1.46-19.131 2.323 1.971-7.838 2.434-16.574.956-24.087-1.444-7.334-4.569-12.609-9.037-15.253-5.349-3.165-13.49-3.167-22.337-.009-12.825 4.58-23.58 14.295-27.401 24.75-4.122 11.279-3.567 16.654-2.898 20.822-.333.018-.66.034-.998.048zm43.962 54.521c-6.498-5.531-9.778-20.824-4.267-32.254.474-.981.53-1.007 1.995-1.678 2.689-1.231 6.752-3.09 13.227-11.647 1.458-1.926 2.746-4.197 3.866-6.682 7.44-1.069 14.583-2.072 22.827-2.859 7.87-.751 19.017 1.008 27.361 2.716v69.859l-3.683-.708c-27.66-5.313-53.787-10.33-61.326-16.747zm45.013 222.75a3.099 3.099 0 0 0-2.691-1.573 3.114 3.114 0 0 0-3.114 3.114c0 .687.229 1.315.605 1.83-2.292 1.632-4.275 3.28-5.931 4.963a3.113 3.113 0 0 0-4.332 2.865c0 .691.233 1.323.614 1.84a17.945 17.945 0 0 0-1.831 4.079c-.742 2.517-1.853 4.429-3.177 5.583.127-.34.206-.704.206-1.088a3.114 3.114 0 1 0-6.227 0c0 .551.155 1.061.406 1.51-1.378-.917-2.499-2.542-3.058-4.599-1.074-3.948-.283-9.152 3.251-15.162a3.104 3.104 0 0 0 2.515 1.292 3.106 3.106 0 0 0 .796-6.111c1.788-2.28 3.953-4.647 6.538-7.083a3.102 3.102 0 0 0 3.08 2.78 3.11 3.11 0 0 0 .71-6.138 108.975 108.975 0 0 1 6.354-4.918 3.108 3.108 0 0 0 2.595 1.397 3.114 3.114 0 0 0 3.114-3.113 3.09 3.09 0 0 0-.577-1.795c.97-.632 1.958-1.265 2.985-1.9 3.86 1.49 7.701 2.945 11.52 4.385a3.11 3.11 0 0 0 3.031 2.424c.682 0 1.307-.225 1.82-.597l1.098.414c2.368.89 4.742 1.782 7.109 2.676-11.12 4.508-20.31 8.705-27.409 12.925zm48.977 48.936c0 5.777-4.7 10.477-10.476 10.477s-10.476-4.7-10.476-10.477v-53.44c3.41-1.406 6.918-2.8 10.467-4.179a563.768 563.768 0 0 1 10.485 4.194zm56.732-31.169c-.818 4.107-3.487 6.082-5.62 6.178-2.72.107-5.111-2.431-6.414-6.85-4.653-15.455-33.733-26.381-70.55-40.214-34.078-12.803-72.703-27.315-89.527-46.414a3.806 3.806 0 0 0-.249-.259c-14.751-14-21.518-31.675-19.054-49.772 2.539-18.646 14.729-35.047 33.443-44.995.044-.023.087-.048.13-.072 3.786-2.196 8.021-4.339 12.573-6.389 10.824 2.967 22.104 5.14 32.46 7.13 9.282 1.785 18.049 3.471 25.06 5.439.06.017.12.031.18.046.84.194 1.685.385 2.526.578-.036.055-.061.117-.094.174-19.039 4.874-38.363 11-56.213 20.765a3.403 3.403 0 0 0-.131.075c-13.418 8.01-19.955 17.149-19.429 27.163 1.375 26.159 50.643 48.943 86.617 65.58 9.267 4.285 17.271 7.986 21.94 10.693.101.059.204.113.309.163 41.989 19.686 54.278 39.767 52.043 50.981zm-85.713-166.976v90.94c-29.554-14.067-66.227-33.685-67.179-51.802-.357-6.792 4.845-13.457 15.462-19.809 16.291-8.901 34.06-14.701 51.717-19.329zm28.981-2.028v96.746a2674.78 2674.78 0 0 1-6.76 3.134c-1.271.587-2.503 1.158-3.715 1.72a10051.9 10051.9 0 0 0-3.715-1.72c-2.158-.998-4.422-2.045-6.761-3.135v-96.75a878.34 878.34 0 0 1 10.474-2.496c3.49.811 6.986 1.641 10.477 2.501zm80.157-13.394c.043.024.087.049.131.072 18.714 9.948 30.904 26.349 33.443 44.995 2.464 18.096-4.303 35.772-19.054 49.772-.087.082-.17.168-.249.259-9.347 10.611-25.632 19.865-43.46 27.96a3.688 3.688 0 0 0-3.337-2.129 3.698 3.698 0 0 0-3.415 5.112c-6.05 2.606-12.196 5.087-18.239 7.447-5.203-3.049-11.077-6.147-17.724-9.269-2.425-1.397-5.581-2.998-9.249-4.767a1642.19 1642.19 0 0 0 10.457-4.875 3.676 3.676 0 0 0 2.859 1.378 3.698 3.698 0 0 0 3.698-3.698c0-.263-.033-.517-.085-.763 14.085-6.785 28.54-14.32 40.43-22.473a3.69 3.69 0 0 0 3.637 3.093 3.698 3.698 0 0 0 3.698-3.698c0-1.416-.805-2.631-1.973-3.252 2.5-1.893 4.843-3.816 6.996-5.769a3.672 3.672 0 0 0 2.75 1.247 3.698 3.698 0 0 0 3.698-3.698 3.672 3.672 0 0 0-1.247-2.75c2.595-2.897 4.73-5.852 6.299-8.86a3.698 3.698 0 1 0 3.618-4.457c-.706 0-1.36.208-1.922.552.741-2.126 1.194-4.277 1.308-6.452.417-7.939-3.623-15.327-11.996-22.04.081.005.158.024.241.024a3.698 3.698 0 1 0-3.698-3.698c0 .449.092.874.239 1.271a72.124 72.124 0 0 0-4.214-2.721c-.043-.025-.087-.051-.131-.075-7.669-4.195-15.649-7.719-23.813-10.786 0-.021.005-.04.005-.06a3.698 3.698 0 0 0-3.698-3.698c-1.165 0-2.192.55-2.87 1.392-9.744-3.339-19.707-6.093-29.7-8.581.031-.192.059-.385.059-.585a3.698 3.698 0 0 0-3.698-3.698 3.685 3.685 0 0 0-3.495 2.542c-5.334-1.269-10.664-2.482-15.96-3.688a3002.88 3002.88 0 0 1-9.432-2.158 155.738 155.738 0 0 0-6.724-1.699c.101.008.197.03.3.03a3.698 3.698 0 1 0-1.442-.292c-5.487-1.243-11.501-2.403-17.758-3.606l-.981-.189c-.197-1.856-1.75-3.308-3.659-3.308-1.413 0-2.626.802-3.249 1.966-10.008-1.976-20.511-4.245-30.22-7.276a3.672 3.672 0 0 0 .958-2.464 3.698 3.698 0 0 0-7.396 0c0 .104.022.201.03.302-12.019-4.4-22.213-10.259-27.761-18.614a52.366 52.366 0 0 1-6.589-15.393 3.674 3.674 0 0 0 2.706 1.194 3.698 3.698 0 0 0 0-7.396 3.685 3.685 0 0 0-3.493 2.534c-1.318-7.381-1.146-14.885-.179-22.415.137 1.918 1.719 3.437 3.671 3.437a3.698 3.698 0 0 0 0-7.396 3.688 3.688 0 0 0-3.464 2.441c.897-6.313 2.311-12.639 3.835-18.923 1.865-.189 3.327-1.746 3.327-3.661a3.689 3.689 0 0 0-1.705-3.107c.24-1.338.311-2.545.285-3.655l.002-.036-.002-.011c-.04-1.537-.26-2.892-.469-4.158-.4-2.424-.837-5.071.113-9.727a3.684 3.684 0 0 0 1.777-3.146 3.66 3.66 0 0 0-.464-1.759 71.95 71.95 0 0 1 .973-2.852c.835-2.286 2.082-4.447 3.607-6.46.202 1.851 1.752 3.297 3.657 3.297a3.695 3.695 0 0 0 .035-7.392c2.78-2.642 5.985-4.895 9.237-6.664a3.69 3.69 0 0 0 3.097 1.688 3.699 3.699 0 0 0 3.698-3.699c0-.323-.055-.631-.133-.931 6.155-2.077 11.825-2.252 14.909-.426.593.351 1.153.832 1.675 1.426a3.678 3.678 0 0 0 1.949 3.174c.672 1.5 1.226 3.268 1.625 5.293.714 3.626.878 7.638.586 11.653-.155-.02-.308-.047-.469-.047a3.69 3.69 0 0 0-.576 7.337c-1.176 5.455-3.176 10.464-5.82 13.958-5.254 6.943-8.093 8.243-10.167 9.191-1.948.892-4.155 1.901-5.886 5.491-1.819 3.773-2.915 7.98-3.35 12.274a3.685 3.685 0 0 0-1.74 3.125c0 1.246.62 2.341 1.563 3.011.407 9.366 3.858 18.37 9.822 23.445 4.534 3.858 12.878 6.968 23.936 9.852a3.693 3.693 0 0 0 3.688 3.599c1.386 0 2.58-.772 3.213-1.901 9.153 2.131 19.74 4.193 31.287 6.413-1.178.619-1.99 1.839-1.99 3.261a3.698 3.698 0 0 0 7.396 0c0-.919-.347-1.749-.902-2.396 2.237.43 4.498.865 6.79 1.309 3.519.681 7.098 1.382 10.716 2.104.444 1.544 1.851 2.681 3.538 2.681a3.676 3.676 0 0 0 2.864-1.385c10.093 2.073 20.402 4.346 30.519 6.914a3.686 3.686 0 0 0-1.769 3.142 3.698 3.698 0 0 0 7.396 0c0-.661-.188-1.273-.492-1.811 10.944 2.912 21.569 6.2 31.356 9.988a3.684 3.684 0 0 0-2.05 3.294 3.698 3.698 0 0 0 7.396 0c0-.437-.089-.85-.228-1.238 5.981 2.518 11.59 5.233 16.688 8.191zm-20.41 34.752c10.617 6.352 15.818 13.016 15.461 19.808-.952 18.117-37.625 37.735-67.179 51.802v-90.924c17.989 4.729 35.667 10.544 51.718 19.314zm46.189-71.554c-6.174 9.299-18.196 16.277-37.727 21.916-17.545-7.543-38.158-13.227-58.705-17.885l3.722-.716c31.212-5.995 55.865-10.73 65.016-18.518 10-8.511 12.941-28.069 6.295-41.856-1.731-3.59-3.938-4.6-5.886-5.491-2.073-.949-4.913-2.249-10.167-9.191-5.676-7.5-8.434-21.953-6.279-32.901.975-4.955 2.839-8.468 5.249-9.894 3.189-1.89 9.146-1.644 15.546.643 8.742 3.122 19.108 10.499 22.56 19.944 3.641 9.961 2.98 13.958 2.398 17.484-.408 2.473-.871 5.277.087 9.138 5.604 22.585 11.397 45.938-2.109 67.327zM503.836 20.337l-2.218 8.202-.032.126c-.41 1.719-10.57 42.051-57.355 39.992-10.417-.463-18.952-2.451-26.482-4.206-4.634-1.079-9.01-2.099-13.249-2.627a4.015 4.015 0 1 0-.994 7.968c3.821.476 7.999 1.448 12.421 2.479 7.87 1.834 16.789 3.911 27.947 4.408l.033.001 35.464 1.485c1.539.064 2.321 1.098 2.586 1.539.259.431.792 1.582.143 2.932-5.872 12.213-20.701 32.49-53.946 31.001-20.112-.895-33.765-4.019-45.81-6.776-6.245-1.43-12.144-2.779-18.137-3.606-2.094-.297-4.048 1.091-4.479 3.157s.812 4.114 2.844 4.684l26.374 7.413c.124.035.25.063.377.087l43.719 7.846a5.128 5.128 0 0 1 3.723 2.794 5.17 5.17 0 0 1-.037 4.695c-7.308 14.259-22.47 30.971-53.252 29.601-.34-.015-.661-.032-.998-.047.67-4.167 1.225-9.542-2.898-20.821-3.821-10.455-14.576-20.17-27.401-24.75-8.847-3.161-16.989-3.157-22.336.009-4.469 2.645-7.594 7.919-9.038 15.253-1.479 7.514-1.016 16.249.956 24.087-6.123-.863-12.228-1.665-19.131-2.323-8.278-.796-19.317.787-28.124 2.518v-52.261c18.817-11.41 35.172-28.111 49.624-42.885 14.438-14.759 28.075-28.699 41.468-34.793 28.851-13.123 44.486-11.049 66.128-8.18 5.536.734 11.26 1.494 17.668 2.058 19.454 1.716 37.97-1.992 50.073-5.403 1.786-.502 3 .454 3.44.89.441.436 1.417 1.649.929 3.453z" fill="#ffffff" opacity="1" data-original="#2a343b" class=""></path><path d="M361.787 309.136a3.698 3.698 0 1 0 0-7.397 3.698 3.698 0 0 0 0 7.397zM374.155 320.607a3.698 3.698 0 1 0 0-7.397 3.698 3.698 0 0 0 0 7.397zM361.787 332.976a3.699 3.699 0 1 0-.001-7.397 3.699 3.699 0 0 0 .001 7.397zM374.155 344.447a3.699 3.699 0 1 0-.001-7.397 3.699 3.699 0 0 0 .001 7.397zM361.787 356.815a3.698 3.698 0 1 0 0-7.396 3.698 3.698 0 0 0 0 7.396zM337.947 285.295a3.698 3.698 0 1 0 0-7.396 3.698 3.698 0 0 0 0 7.396zM350.315 296.767a3.698 3.698 0 1 0 0-7.396 3.698 3.698 0 0 0 0 7.396zM350.315 320.607a3.698 3.698 0 1 0 0-7.397 3.698 3.698 0 0 0 0 7.397zM350.315 360.892a3.698 3.698 0 1 0 0 7.395 3.698 3.698 0 0 0 0-7.395zM337.947 373.26a3.698 3.698 0 1 0 0 7.397 3.698 3.698 0 0 0 0-7.397zM314.107 277.9a3.698 3.698 0 1 0 0 7.397 3.698 3.698 0 0 0 0-7.397zM326.475 289.371a3.698 3.698 0 1 0 0 7.397 3.698 3.698 0 0 0 0-7.397zM314.107 373.26a3.698 3.698 0 1 0 0 7.397 3.698 3.698 0 0 0 0-7.397zM326.475 384.731a3.698 3.698 0 1 0 0 7.397 3.698 3.698 0 0 0 0-7.397zM302.635 265.531a3.698 3.698 0 1 0 0 7.395 3.698 3.698 0 0 0 0-7.395zM290.266 277.9a3.698 3.698 0 1 0 0 7.397 3.698 3.698 0 0 0 0-7.397zM302.635 384.731a3.698 3.698 0 1 0 0 7.397 3.698 3.698 0 0 0 0-7.397zM290.266 397.1a3.698 3.698 0 1 0 0 7.396 3.698 3.698 0 0 0 0-7.396zM266.426 254.06a3.698 3.698 0 1 0 0 7.397 3.698 3.698 0 0 0 0-7.397zM278.795 265.531a3.698 3.698 0 1 0 0 7.395 3.698 3.698 0 0 0 0-7.395zM242.586 254.06a3.698 3.698 0 1 0 0 7.397 3.698 3.698 0 0 0 0-7.397zM254.955 265.531a3.698 3.698 0 1 0 0 7.395 3.698 3.698 0 0 0 0-7.395zM218.746 254.06a3.698 3.698 0 1 0 0 7.397 3.698 3.698 0 0 0 0-7.397zM207.275 241.691a3.698 3.698 0 1 0 0 7.397 3.698 3.698 0 0 0 0-7.397zM194.906 254.06a3.698 3.698 0 1 0 0 7.397 3.698 3.698 0 0 0 0-7.397zM171.066 142.255a3.698 3.698 0 1 0 0-7.396 3.698 3.698 0 0 0 0 7.396zM171.066 166.095a3.698 3.698 0 1 0 0-7.396 3.698 3.698 0 0 0 0 7.396zM171.066 230.22a3.698 3.698 0 1 0 0 7.397 3.698 3.698 0 0 0 0-7.397zM183.435 241.691a3.698 3.698 0 1 0 0 7.397 3.698 3.698 0 0 0 0-7.397zM159.595 153.727a3.698 3.698 0 1 0 0-7.397 3.698 3.698 0 0 0 0 7.397zM147.226 158.699a3.698 3.698 0 1 0 0 7.397 3.698 3.698 0 0 0 0-7.397zM159.595 177.566a3.698 3.698 0 1 0 0-7.396 3.698 3.698 0 0 0 0 7.396zM147.226 182.54a3.698 3.698 0 1 0 0 7.396 3.698 3.698 0 0 0 0-7.396zM147.226 206.38a3.698 3.698 0 1 0 0 7.396 3.698 3.698 0 0 0 0-7.396zM159.595 217.851a3.698 3.698 0 1 0 0 7.396 3.698 3.698 0 0 0 0-7.396zM147.226 230.22a3.698 3.698 0 1 0 0 7.397 3.698 3.698 0 0 0 0-7.397zM159.595 241.691a3.698 3.698 0 1 0 0 7.397 3.698 3.698 0 0 0 0-7.397zM225.223 428.814a3.114 3.114 0 1 0 0 6.229 3.114 3.114 0 0 0 0-6.229z" fill="#ffffff" opacity="1" data-original="#2a343b" class=""></path></g></g></svg>